<svg width="197" height="288" xmlns="http://www.w3.org/2000/svg" xmlns:xlink="http://www.w3.org/1999/xlink"><defs><path id="a" d="M0 .5h119.8V140H0z"/><path id="c" d="M0 0h12.6v12.6H0z"/><path id="e" d="M0 0h12.6v12.6H0z"/><path id="g" d="M0 .3h39.7V40H0z"/><path id="i" d="M0 0h37.2v51H0z"/></defs><g transform="translate(0 1)" fill="none" fill-rule="evenodd"><path d="M83.1 240.4c.3 3 2.8 5.3 5.8 5.3h26.3c1.8 0 12.5 0 15.9-1 5.1-1.3 4.6-4.7 7.5-9.2 2.7-4.2 3.4-10.5 5.7-10.5l10.3-1.4c5.7-1.4 7.5-3.1 8.8-7.3.3-1 .4-1.9.4-2.8v-5.1l7.6-3.8c1.5-.7 2-2.6 1.1-4l-2.2-3.7s-3.7-5.6-3.9-9.5l-1.5-12.5h-2c.4-3-1.8-5.6-4.7-5.7l-56 2a5.8 5.8 0 0 0-6.1 5.7l-16 32.8 3 30.7z" fill="#4E4FFB"/><g transform="translate(57 147)"><mask id="b" fill="#fff"><use xlink:href="#a"/></mask><path d="M109.6 38.1c7-.1 10.4-6 10.2-13 0-1.1-.4-2.6-1-4.2a28.3 28.3 0 0 0-19-17.6C92 1.1 62 .5 62 .5c-14 .3-27 5-34 17.2a105.7 105.7 0 0 0-11.4 32.6l-2.7 15A80 80 0 0 1 2.8 96.1L2 97.3a10.5 10.5 0 0 0 7 16.5l4.1.6c6 .9 10 6.6 8.8 12.5v.5a10.5 10.5 0 0 0 9.4 12.6H62c6.2.4 11.4-4.5 11.2-10.7l-.1-6.8c-.1-4.7 3.3-5.7 6.7-8.6 2-1.8 3.1-4.3 3.2-7v-1.8a10 10 0 0 0-7.1-9.9l-2.2-.7c-7.9-3.1-18-9.4-18-21.3l.8-4.8 11.4-3a42.4 42.4 0 0 0 29-27l12.8-.3z" fill="#1E218E" mask="url(#b)"/></g><circle fill="#F4F6FA" cx="62" cy="173" r="9"/><circle fill="#F4F6FA" cx="57.5" cy="136.5" r="15.5"/><ellipse cx="44.5" cy="45" rx="44.5" ry="45" transform="translate(52 29)" fill="#F4F6FA"/><g transform="translate(184 37)"><mask id="d" fill="#fff"><use xlink:href="#c"/></mask><path d="M6.3 2.9a3.4 3.4 0 0 0-3.4 3.4c0 .9.3 1.7 1 2.4a3.5 3.5 0 0 0 4.8 0 3.4 3.4 0 0 0 0-4.8c-.7-.7-1.5-1-2.4-1m0 9.7A6.2 6.2 0 0 1 0 6.3 6.2 6.2 0 0 1 6.3 0a6.2 6.2 0 0 1 6.3 6.3c0 1.7-.7 3.2-1.9 4.4a6.2 6.2 0 0 1-4.4 1.9" fill="#FFF" mask="url(#d)"/></g><g transform="translate(0 124)"><mask id="f" fill="#fff"><use xlink:href="#e"/></mask><path d="M6.3 2.9a3.4 3.4 0 0 0-3.4 3.4c0 .9.3 1.7 1 2.4a3.5 3.5 0 0 0 4.8 0 3.4 3.4 0 0 0 0-4.8c-.7-.7-1.5-1-2.4-1m0 9.7A6.2 6.2 0 0 1 0 6.3 6.2 6.2 0 0 1 6.3 0a6.2 6.2 0 0 1 6.3 6.3c0 1.7-.7 3.2-1.9 4.4a6.2 6.2 0 0 1-4.4 1.9" fill="#FFF" mask="url(#f)"/></g><path d="M183.4 79.9h-1.8c-.4-6-5.3-10.9-11.3-10.9-6.2 0-11.3 5.2-11.3 11.5S164.1 92 170.3 92a11 11 0 0 0 6.6-2.2c.5-.3.6-1.2.3-1.7-.4-.5-1.2-.6-1.7-.2a9 9 0 0 1-5.2 1.7 9 9 0 0 1-9-9.1c0-5 4.1-9 9-9a9 9 0 0 1 8.9 8.4h-1.8c-.6 0-.8.4-.3.8l2.6 3c.4.4 1.2.4 1.5 0l2.6-3c.4-.4.2-.8-.4-.8M162.6 43c-1.4 0-2.8-.5-3.8-1.5l-9.6-9.4-12.8-12.5a.7.7 0 0 0-.6-.2c-4.3.8-8.7-1.4-10.6-5.1a1.3 1.3 0 0 1 .2-1.5c.2-.3.6-.4 1-.4h7.2a.7.7 0 0 0 .6-.3l1.2-2v-.7l-1.2-2a.7.7 0 0 0-.6-.2h-7.3c-.4 0-.9-.3-1.1-.7-.2-.3-.3-.8 0-1.2.4-1 1-1.7 1.8-2.4a10 10 0 0 1 7-2.9 9.9 9.9 0 0 1 9.8 11.5c0 .2 0 .5.2.6l22.4 22c2.1 2 2.1 5.3 0 7.4-1 1-2.4 1.5-3.8 1.5M136 18c.6 0 1 .3 1.4.6l12.9 12.6 9.5 9.3a4 4 0 0 0 3 1.2 4 4 0 0 0 2.9-6.8c-.3-.1-14.6-14-22.5-21.9a2 2 0 0 1-.6-1.7l.2-1.5c0-4.7-4-8.5-8.7-8.5a8.7 8.7 0 0 0-7.7 4.6h7.3a2 2 0 0 1 1.8 1l1.1 1.9a2 2 0 0 1 0 2l-1.1 2-.4.3a2 2 0 0 1-1.4.6h-7.3A8.8 8.8 0 0 0 136 18" fill="#FFF"/><path d="M162.6 43c-1.4 0-2.8-.5-3.8-1.5l-9.6-9.4-12.8-12.5a.7.7 0 0 0-.6-.2c-4.3.8-8.7-1.4-10.6-5.1a1.3 1.3 0 0 1 .2-1.5c.2-.3.6-.4 1-.4h7.2a.7.7 0 0 0 .6-.3l1.2-2v-.7l-1.2-2a.7.7 0 0 0-.6-.2h-7.3c-.4 0-.9-.3-1.1-.7-.2-.3-.3-.8 0-1.2.4-1 1-1.7 1.8-2.4a10 10 0 0 1 7-2.9 9.9 9.9 0 0 1 9.8 11.5c0 .2 0 .5.2.6l22.4 22c2.1 2 2.1 5.3 0 7.4-1 1-2.4 1.5-3.8 1.5zM136 18c.6 0 1 .3 1.4.6l12.9 12.6 9.5 9.3a4 4 0 0 0 3 1.2 4 4 0 0 0 2.9-6.8c-.3-.1-14.6-14-22.5-21.9a2 2 0 0 1-.6-1.7l.2-1.5c0-4.7-4-8.5-8.7-8.5a8.7 8.7 0 0 0-7.7 4.6h7.3a2 2 0 0 1 1.8 1l1.1 1.9a2 2 0 0 1 0 2l-1.1 2-.4.3a2 2 0 0 1-1.4.6h-7.3A8.8 8.8 0 0 0 136 18z" stroke="#FFF"/><g><path d="M15 70.4h-.4l-4.8 2.3c-.4.2-.6.6-.5 1l1 4.7c-.8.5-1.4 1.2-2 1.9l-4.6-1c-.4-.1-.8.1-1 .5L.5 84.6c-.2.4 0 .9.3 1.1l4 3V91L.9 94c-.4.2-.5.7-.3 1l2.2 5c.2.3.6.5 1 .5l4.6-1a15 15 0 0 0 2 1.9l-1 4.6c-.1.5 0 .9.5 1l4.8 2.2c.4.2.9 0 1.1-.2l3-4.2H21L24 109c.2.3.7.4 1 .2l5-2.2c.3-.1.5-.5.4-1l-1-4.6a15 15 0 0 0 2-2l4.6 1c.4.1.8 0 1-.5l2.2-4.8c.2-.4 0-.9-.3-1.1l-4-2.9v-1.2-1.3l4-2.9c.4-.2.5-.7.3-1l-2.2-5a.9.9 0 0 0-1-.4l-4.6 1c-.6-.7-1.2-1.4-2-2l1-4.6c.1-.4 0-.8-.5-1l-4.8-2.2a.9.9 0 0 0-1.1.3l-3 4.1H18.7l-2.9-4.1a.9.9 0 0 0-.8-.4zm-.3 2l2.8 4c.1.2.5.3.8.3a13.4 13.4 0 0 1 3.1 0c.3 0 .7-.1.8-.4l2.8-3.9 3.6 1.6-1 4.5c0 .3 0 .7.3.9 1 .7 1.8 1.5 2.4 2.4.3.2.6.4 1 .3l4.4-1 1.6 3.6-4 2.8c-.2.2-.3.5-.3.8a13.4 13.4 0 0 1 0 3.1c0 .4.1.7.4.8l4 2.8-1.7 3.6-4.5-1c-.3 0-.6 0-.9.4-.6.9-1.5 1.7-2.4 2.4-.2.2-.4.5-.3.8l1 4.5-3.6 1.6-2.8-3.9a.9.9 0 0 0-.8-.4 13.4 13.4 0 0 1-3.1 0c-.3 0-.7.1-.8.4l-2.8 4-3.6-1.7 1-4.5c0-.3 0-.6-.3-.8-1-.7-1.8-1.5-2.4-2.4a.9.9 0 0 0-1-.4l-4.4 1L2.4 95l4-2.8c.2-.1.3-.4.3-.8a13.6 13.6 0 0 1 0-3.1c0-.3-.1-.6-.4-.8l-4-2.8L4 81.2l4.5 1c.3 0 .6-.2.9-.4.6-1 1.5-1.7 2.4-2.4.2-.2.4-.6.3-1L11 74l3.6-1.6zm5.2 9a8.4 8.4 0 1 0 0 16.9 8.4 8.4 0 0 0 0-16.8zm0 1.8c3.6 0 6.6 3 6.6 6.7a6.6 6.6 0 1 1-6.6-6.7z" fill="#FFF"/><g transform="translate(0 69.7)"><mask id="h" fill="#fff"><use xlink:href="#g"/></mask><path d="M19.9 14a6.2 6.2 0 1 0 0 12.4 6.2 6.2 0 0 0 0-12.5zm0 13.2a7 7 0 1 1 0-14.1 7 7 0 0 1 0 14zm0-15a8 8 0 1 0 0 16 8 8 0 0 0 0-16zm0 16.7a8.8 8.8 0 1 1 0-17.6 8.8 8.8 0 0 1 0 17.6zm-8.3 6.9l3 1.3 2.5-3.7c.3-.3.8-.6 1.2-.5h3c.5 0 1 .2 1.3.5l2.6 3.7 2.9-1.3-.9-4.2c0-.5.1-1 .5-1.3A13 13 0 0 0 30 28c.3-.4.8-.6 1.3-.5l4.2.9 1.3-3-3.6-2.5c-.4-.3-.6-.8-.6-1.2a13.2 13.2 0 0 0 0-3c0-.6.2-1 .6-1.3l3.6-2.6-1.3-2.9-4.2.9c-.5 0-1-.1-1.3-.5-.6-.9-1.4-1.7-2.3-2.3-.4-.3-.6-.8-.5-1.3l.9-4.2-3-1.3-2.5 3.6c-.3.4-.8.6-1.2.6h-3c-.5 0-1-.2-1.3-.6l-2.6-3.6-2.9 1.3.9 4.2c0 .5-.1 1-.5 1.3-.9.6-1.7 1.4-2.3 2.3-.3.4-.8.6-1.3.5l-4.2-.9-1.3 3 3.6 2.5c.4.3.6.7.6 1.2a13 13 0 0 0 0 3c0 .5-.2 1-.6 1.3L3 25.4l1.3 3 4.2-.9c.5 0 1 0 1.3.5a13 13 0 0 0 2.3 2.3c.4.3.6.8.5 1.3l-.9 4.2zM24.9 38l-3-4.2a.5.5 0 0 0-.4-.2h-3.3c-.1 0-.3 0-.4.2l-3 4.2-4.1-1.9 1-4.8c0-.1 0-.3-.2-.4-1-.8-1.8-1.6-2.5-2.5a.5.5 0 0 0-.5-.2l-4.7 1-2-4.1 4.3-3 .2-.4a14 14 0 0 1 0-3.3c0-.1 0-.3-.2-.4l-4.2-3L3.8 11l4.8 1c.1 0 .3 0 .4-.2.7-1 1.6-1.8 2.5-2.5.2 0 .2-.3.2-.5l-1-4.8 4.1-1.8 3 4.2.4.2h3.3c.1 0 .3 0 .4-.2l3-4.2L29 4l-1 4.8c0 .2 0 .4.2.5 1 .8 1.8 1.6 2.5 2.5 0 .2.3.2.5.2l4.7-1 2 4.1-4.3 3-.2.4a13.7 13.7 0 0 1 0 3.3c0 .1 0 .3.2.4l4.2 3-1.9 4.1-4.8-1c-.1 0-.3 0-.4.2-.7 1-1.6 1.7-2.5 2.5-.2 0-.2.3-.2.4l1 4.8-4.1 2zM8.5 29.3l.1.2c.6.7 1.2 1.3 1.9 1.8l.2.2-1 5c0 .1 0 .3.2.4l4.9 2.2c.2.1.4 0 .6-.1l3-4.3h2.9l3 4.3c.2.2.4.2.6.1l4.9-2.2c.2 0 .3-.3.2-.5l-1-4.9.2-.2c.7-.5 1.3-1.1 1.9-1.8l.1-.2 5 1c.1 0 .3 0 .4-.2l2.2-5c.1-.1 0-.4-.1-.5l-4.3-3v-.3-1.2V18.7l.2-.1 4-3c.3 0 .3-.3.2-.5l-2.2-4.9c0-.2-.3-.3-.5-.2l-4.9 1-.1-.2-1.9-1.9-.2-.1 1-5c0-.1 0-.4-.2-.5l-4.9-2.2c-.2 0-.4 0-.6.2l-3 4.3h-2.9l-3-4.3L15 1h-.2L10 3.3c-.2.1-.3.4-.2.6l1 4.9-.2.1-1.9 1.9-.1.2-5-1c-.1 0-.3 0-.4.2L.9 15.1c-.1.2 0 .4.1.6l4.3 3V21.6l-.2.1-4 3c-.3 0-.3.3-.2.5L3 30c0 .2.3.3.5.2l4.9-1zM15 40l-.5-.1-4.9-2.2c-.5-.3-.9-.9-.7-1.5l.9-4.4-1.6-1.6-4.4 1c-.6 0-1.2-.3-1.5-.8L.1 25.5C0 25 .1 24.3.5 24l4-2.7a12.7 12.7 0 0 1 0-2.1l-4-2.8c-.5-.3-.6-1-.4-1.5l2.2-5c.3-.5.9-.8 1.5-.6l4.4.9 1.6-1.6-1-4.5c0-.6.3-1.2.8-1.4L14.5.4l.4-.1c.5 0 .9.2 1.1.5l2.8 4h2.1l2.8-4c.3-.5 1-.7 1.5-.4l4.9 2.2c.5.2.9.8.7 1.4L30 8.5l1.6 1.6L36 9c.6 0 1.2.3 1.5.8l2.2 4.9c.2.5 0 1.2-.4 1.5l-4 2.8a13 13 0 0 1 0 2l4 2.8c.5.4.6 1 .4 1.6l-2.2 4.9c-.3.5-.9.8-1.5.7l-4.4-.9-1.6 1.6 1 4.4c0 .6-.3 1.2-.8 1.5l-4.9 2.2c-.5.2-1.2 0-1.5-.4l-2.8-4h-2l-2.9 4c-.2.3-.6.5-1 .5z" fill="#FFF" mask="url(#h)"/></g></g><g transform="rotate(90 34.5 91)"><mask id="j" fill="#fff"><use xlink:href="#i"/></mask><path d="M0 48.4V40c0-.4.2-.7.5-1 .3-.2.6-.3 1-.3A6.1 6.1 0 0 0 7.7 37a6.3 6.3 0 0 0 1.8-4.6c0-1.8-.6-3.3-1.9-4.5a6.1 6.1 0 0 0-6.1-1.6v-.1c-.7 0-1.2-.4-1.4-1H0v-9a2.6 2.6 0 0 1 2.5-2.6h8.2A3.5 3.5 0 0 0 13.2 8c-.4-.8-.6-1.7-.6-2.6 0-1.5.5-2.8 1.5-3.8C15.2.6 16.5 0 18 0c1.5 0 2.8.5 3.8 1.6 1 1 1.6 2.3 1.6 3.8 0 1-.3 1.8-.7 2.6-.4.6-.7 1.3-.7 2.1 0 1 .3 1.8 1 2.4.6.7 1.3 1 2.3 1.2h9.4c.7 0 1.3.3 1.8.8s.8 1 .8 1.8v8.9c0 .4-.2.7-.5 1-.3.3-.6.4-1 .4a1 1 0 0 1-.4 0 6.3 6.3 0 0 0-8.9 5.8 6.3 6.3 0 0 0 8.8 5.9l.5-.1c.4 0 .8.1 1 .4.3.3.5.6.5 1v8.8c0 .7-.3 1.3-.8 1.8s-1 .8-1.8.8h-8.8c-.4 0-.7-.1-1-.4-.3-.3-.5-.7-.5-1l.1-.5v-.2c.2-.6.3-1.1.3-1.7 0-1.8-.6-3.3-1.8-4.5a6 6 0 0 0-4.5-2 6 6 0 0 0-4.5 2 6.1 6.1 0 0 0-1.6 6.2v.6c0 .4 0 .8-.3 1-.3.4-.7.5-1 .5H2.5A2.5 2.5 0 0 1 0 48.4" fill="#FF7565" mask="url(#j)"/></g></g></svg>