<svg width="407" height="303" xmlns="http://www.w3.org/2000/svg" xmlns:xlink="http://www.w3.org/1999/xlink"><defs><path id="a" d="M.2.7h70.2v68H.2z"/><path id="c" d="M0 .6h114.5v134.2H0z"/><path id="e" d="M0 302h404V1H0z"/></defs><g transform="translate(1)" fill="none" fill-rule="evenodd"><path d="M280.8 227H108.2a8.3 8.3 0 0 1-8.2-8.4V118.4c0-4.7 3.7-8.4 8.2-8.4h172.6c4.5 0 8.2 3.7 8.2 8.4v100.2c0 4.7-3.7 8.4-8.2 8.4" fill="#FF7565"/><path d="M113 120.5a3.5 3.5 0 1 1-7 0 3.5 3.5 0 0 1 7 0M129 120.5a3.5 3.5 0 1 1-7 0 3.5 3.5 0 0 1 7 0M142 120.5a3.5 3.5 0 1 1-7 0 3.5 3.5 0 0 1 7 0" fill="#FEE734"/><path d="M291.9 264H287a6.2 6.2 0 0 1-6.1-6.3v-16.4c0-3.5 2.8-6.3 6.1-6.3h4.8c3.3 0 6.1 2.8 6.1 6.3v16.4c0 3.5-2.8 6.3-6.1 6.3zM298 246h-17M289 248v-13" stroke="#FFF" stroke-width="3"/><g transform="translate(312 234)"><mask id="b" fill="#fff"><use xlink:href="#a"/></mask><path d="M1.4 64a5.2 5.2 0 0 0 5.1 4.6h16.6c1.5 0 11 0 14.1-.8 4.6-1.2-1.8-8 .8-12 2.5-3.7 4.8-5.6 6.9-5.6l9.2-1.2c5-1.2 6.6-2.8 7.8-6.5.3-.9.4-1.7.4-2.6v-6.5l6.7-3.3a2.5 2.5 0 0 0 1-3.5l-.5-1a46.5 46.5 0 0 1-6-17.8l-.3-2h-1.7A4.6 4.6 0 0 0 57.2.6L7.3 2.4c-3-.2-7.1 8-7.1 11l2.3 23.5-1.1 27z" fill="#4E4FFB" mask="url(#b)"/></g><path d="M313.3 263c-5-41 5-49.7 20.2-53.8a36 36 0 0 1 41 18.4l1.6 3.2c2.5 4.6-.6 10.3-5.6 10.6l-11.8.6c-2.7.2-5.3-9.5-6.8-7.1 0 0-3 9.2-5.8 14.4-1 1.9-3.6 2-4.8.1l-2-3.2a4.3 4.3 0 0 0-6.5-1L313.3 263z" fill="#6BDE23"/><path d="M303 203.9a17 17 0 1 0 34 2.2 17 17 0 0 0-34-2.2" fill="#6BDE23"/><path d="M295 187a8.5 8.5 0 1 0 17 1 8.5 8.5 0 0 0-17-1" fill="#6BDE23"/><path d="M141 235l-2.5 27.4a5 5 0 0 1-5 4.6h-41a5 5 0 0 1-5-5.1V256a5 5 0 0 0-5-5.1H72a5 5 0 0 1-5-5.1v-6a5 5 0 0 0-5-5 5 5 0 0 1-3.3-1.2c-2-1.7-2.2-4.9-.5-7L69.8 212c.7-1.8 4.4-17.1 4.4-17.1l61.4-3.9a5 5 0 0 1 5.4 5.1V235" fill="#4E4FFB"/><path d="M140.1 260l9.1-34c2.5-9.4 4.3-19 5.4-28.6l.3-2.8a14 14 0 0 0-14.5-15.7 5.8 5.8 0 0 1-6.2-6l.1-7.8c0-5.2-5.1-8.7-9.7-6.6l-14 6.5c-2 .8-4.2.8-6-.3L92 157.8a6.7 6.7 0 0 0-7 .3l-11.3 7.6c-2.9 2-4 5.8-2.4 9l3 6.8c1.6 3.1.6 7-2.3 9a7.2 7.2 0 0 0 1 12.3l6 2.8a42 42 0 0 1 22.8 28.3 4 4 0 0 0 3.9 3.1h5.4a4 4 0 0 0 4-4 4 4 0 0 1 4-4.2h7a4 4 0 0 1 4 4l.2 17.3a10 10 0 0 0 9.8 9.9" fill="#FDB094"/><path d="M377.2 193H275.8a3.8 3.8 0 0 1-3.8-3.8V79.8c0-2 1.7-3.8 3.8-3.8h101.4c2.1 0 3.8 1.7 3.8 3.8v109.4c0 2-1.7 3.8-3.8 3.8z" stroke="#4E4FFB" stroke-width="3"/><path d="M282 81.5a2.5 2.5 0 1 1-5 0 2.5 2.5 0 0 1 5 0M290 81.5a2.5 2.5 0 1 1-5 0 2.5 2.5 0 0 1 5 0M295 81.5a2.5 2.5 0 1 1-5 0 2.5 2.5 0 0 1 5 0" fill="#4E4FFB"/><path d="M386.8 144.5h9.6c2.4 0 4.4 2 4.4 4.4v26.7c0 2.4-2 4.4-4.4 4.4h-28.5c-2.5 0-4.4-2-4.4-4.4v-26.7c0-2.4 2-4.4 4.4-4.4h9.5" fill="#FEE734"/><path d="M386.8 144.5h9.6c2.4 0 4.4 2 4.4 4.4v26.7c0 2.4-2 4.4-4.4 4.4h-28.5c-2.5 0-4.4-2-4.4-4.4v-26.7c0-2.4 2-4.4 4.4-4.4h9.5" stroke="#FFF" stroke-width="3"/><path fill="#FEE734" d="M388.3 140v26.3h-9.7v-26.2"/><path stroke="#FFF" stroke-width="3" d="M388.3 140v26.3h-9.7v-26.2"/><path d="M392 129a11 11 0 1 1-22 0 11 11 0 0 1 22 0" fill="#FEE734"/><path d="M392 129a11 11 0 1 1-22 0 11 11 0 0 1 22 0z" stroke="#FFF" stroke-width="3"/><path d="M272 89h109" stroke="#4E4FFB" stroke-width="3"/><path d="M127.6 288h133.8c3.1 0 5.6-2.5 5.6-5.6v-36.8c0-3.1-2.5-5.6-5.6-5.6H127.6c-3.1 0-5.6 2.5-5.6 5.6v36.8c0 3.1 2.5 5.6 5.6 5.6z" stroke="#FFF" stroke-width="3"/><path d="M229 288v-3.7c0-3-2.5-5.3-5.5-5.3h-56c-3 0-5.5 2.4-5.5 5.3v3.7M240 248v4c0 1.7 1.4 3 3.2 3h3.8M224 248v4c0 1.7 1.4 3 3.2 3h3.8M208 248v4c0 1.7 1.4 3 3.2 3h3.8M196 248v4c0 1.7 1.4 3 3.2 3h3.8M179 248v4c0 1.7 1.4 3 3.2 3h3.8M163 248v4c0 1.7 1.4 3 3.2 3h3.8M147 248v4c0 1.7 1.4 3 3.2 3h3.8M224 262v4c0 1.7 1.4 3 3.2 3h3.8M208 262v4c0 1.7 1.4 3 3.2 3h3.8M196 262v4c0 1.7 1.4 3 3.2 3h3.8M179 262v4c0 1.7 1.4 3 3.2 3h3.8M163 262v4c0 1.7 1.4 3 3.2 3h3.8M351 59a5 5 0 1 1-10 0 5 5 0 0 1 10 0zM101 286a3.5 3.5 0 1 1-5-5 3.5 3.5 0 0 1 5 5zM404 210.5a3.5 3.5 0 1 1-7 0 3.5 3.5 0 0 1 7 0z" stroke="#FFF" stroke-width="3"/><path d="M290 130.7c-1.4-1.6-199 0-199 0" stroke="#FEE734" stroke-width="3"/><path d="M187.9 91.8c.2 3 2.7 5.2 5.6 5.2H219c1.7 0 12 0 15.3-1 5-1.3 4.5-4.7 7.3-9.1 2.7-4.2 3.3-10.5 5.6-10.5l10-1.4c5.5-1.3 7.2-3 8.5-7.2.3-1 .4-1.9.4-2.8v-5l7.4-3.8c1.4-.7 2-2.5 1.1-4l-2.2-3.6s-3.5-5.6-3.8-9.5l-1.5-12.4h-1.8a5 5 0 0 0-4.7-5.7l-54.2 2c-3.3-.3-6 2.4-6 5.7L185 61.3l2.9 30.5z" fill="#4E4FFB"/><g transform="translate(163)"><mask id="d" fill="#fff"><use xlink:href="#c"/></mask><path d="M92.5 37l12.3-.2c6.6-.2 9.8-5.8 9.7-12.5a27.1 27.1 0 0 0-19.1-21C87.8 1 59.3.6 59.3.6 45.8.9 33.4 5.4 26.8 17c-5.6 9.9-9.2 21.6-11 31.4l-2.5 14.3c-1.7 10-5 21.6-10.7 29.8l-.8 1.1a10.1 10.1 0 0 0 6.8 15.9l3.9.6c5.7.8 9.5 6.3 8.4 12l-.1.4c-1.2 6 3 11.7 9 12.2h29.3a10 10 0 0 0 10.7-10.4l-.1-6.5c-.1-4.4 3.1-5.5 6.4-8.2a9 9 0 0 0 3-6.7V101c.1-4.3-2.7-8.2-6.8-9.4a28 28 0 0 1-2-.8c-7.6-3-17.2-9-17.2-20.4l.7-4.6 10.9-3A40.6 40.6 0 0 0 92.5 37" fill="#3136C8" mask="url(#d)"/></g><path d="M206.2 101H104.8a3.9 3.9 0 0 1-3.8-4V33c0-2.2 1.7-4 3.8-4h101.4c2.1 0 3.8 1.8 3.8 4v64c0 2.2-1.7 4-3.8 4z" stroke="#FFF" stroke-width="3"/><path d="M110 36.5a2.5 2.5 0 1 1-5 0 2.5 2.5 0 0 1 5 0M117 36.5a2.5 2.5 0 1 1-5 0 2.5 2.5 0 0 1 5 0M123 36.5a2.5 2.5 0 1 1-5 0 2.5 2.5 0 0 1 5 0" fill="#FFF"/><path d="M101 44h109" stroke="#FFF" stroke-width="3"/><path d="M305.8 23h-.3l-4.6 2.2c-.4.1-.6.5-.5 1l1 4.4c-.7.5-1.3 1.1-1.9 1.8l-4.4-1c-.4 0-.8.2-1 .5l-2 4.6c-.2.4 0 .8.2 1l4 2.8-.1 1.2v1.2l-3.9 2.7c-.3.3-.4.7-.2 1l2 4.7c.2.3.6.5 1 .5l4.4-1 1.9 1.9-1 4.4c0 .4.1.8.5 1l4.6 2c.4.2.8 0 1-.2l2.8-4h2.4l2.7 4c.3.3.7.4 1 .2l4.7-2c.4-.2.6-.6.5-1l-1-4.4 1.9-1.9 4.4 1c.4 0 .8-.2 1-.5l2-4.6c.2-.4 0-.8-.2-1l-4-2.8.1-1.2v-1.2l3.9-2.7c.3-.3.4-.7.2-1l-2-4.7a.8.8 0 0 0-1-.5l-4.4 1c-.6-.7-1.2-1.3-1.9-1.8l1-4.5c0-.4-.1-.8-.5-1l-4.6-2a.8.8 0 0 0-1 .3l-2.8 3.9-1.2-.1h-1.2l-2.7-3.8a.8.8 0 0 0-.8-.4zm-.2 1.9l2.6 3.7c.2.3.5.4.8.4a12.8 12.8 0 0 1 3 0c.3 0 .6-.1.8-.4l2.6-3.7 3.4 1.5-1 4.3c0 .3.1.6.4.8.9.7 1.6 1.5 2.3 2.3.2.3.5.4.8.3l4.3-.9 1.5 3.4-3.7 2.6c-.3.2-.4.5-.4.8a12.7 12.7 0 0 1 0 3c0 .3.1.6.4.8l3.7 2.6-1.5 3.4-4.3-1c-.3 0-.6.1-.8.4-.7.9-1.4 1.6-2.3 2.3-.3.2-.4.5-.3.8l.9 4.3-3.4 1.5-2.6-3.7a.8.8 0 0 0-.8-.4 13 13 0 0 1-3 0c-.3 0-.6.1-.8.4l-2.6 3.7-3.4-1.5 1-4.3c0-.3-.1-.6-.4-.8-.9-.7-1.6-1.4-2.3-2.3a.8.8 0 0 0-.8-.3l-4.3.9-1.5-3.4 3.7-2.6c.3-.2.4-.5.4-.8a12.9 12.9 0 0 1 0-3c0-.3-.1-.6-.4-.8l-3.7-2.6 1.5-3.4 4.3 1c.3 0 .6-.1.8-.4.7-.8 1.4-1.6 2.3-2.3.3-.2.4-.5.3-.8l-.9-4.3 3.4-1.5zm4.9 8.6a8 8 0 1 0 0 16 8 8 0 0 0 0-16zm0 1.7a6.3 6.3 0 1 1 0 12.6 6.3 6.3 0 0 1 0-12.6z" fill="#FFF"/><path d="M305.8 23h-.3l-4.6 2.2c-.4.1-.6.5-.5 1l1 4.4c-.7.5-1.3 1.1-1.9 1.8l-4.4-1c-.4 0-.8.2-1 .5l-2 4.6c-.2.4 0 .8.2 1l4 2.8-.1 1.2v1.2l-3.9 2.7c-.3.3-.4.7-.2 1l2 4.7c.2.3.6.5 1 .5l4.4-1 1.9 1.9-1 4.4c0 .4.1.8.5 1l4.6 2c.4.2.8 0 1-.2l2.8-4h2.4l2.7 4c.3.3.7.4 1 .2l4.7-2c.4-.2.6-.6.5-1l-1-4.4 1.9-1.9 4.4 1c.4 0 .8-.2 1-.5l2-4.6c.2-.4 0-.8-.2-1l-4-2.8.1-1.2v-1.2l3.9-2.7c.3-.3.4-.7.2-1l-2-4.7a.8.8 0 0 0-1-.5l-4.4 1c-.6-.7-1.2-1.3-1.9-1.8l1-4.5c0-.4-.1-.8-.5-1l-4.6-2a.8.8 0 0 0-1 .3l-2.8 3.9-1.2-.1h-1.2l-2.7-3.8a.8.8 0 0 0-.8-.4zm-.2 1.9l2.6 3.7c.2.3.5.4.8.4a12.8 12.8 0 0 1 3 0c.3 0 .6-.1.8-.4l2.6-3.7 3.4 1.5-1 4.3c0 .3.1.6.4.8.9.7 1.6 1.5 2.3 2.3.2.3.5.4.8.3l4.3-.9 1.5 3.4-3.7 2.6c-.3.2-.4.5-.4.8a12.7 12.7 0 0 1 0 3c0 .3.1.6.4.8l3.7 2.6-1.5 3.4-4.3-1c-.3 0-.6.1-.8.4-.7.9-1.4 1.6-2.3 2.3-.3.2-.4.5-.3.8l.9 4.3-3.4 1.5-2.6-3.7a.8.8 0 0 0-.8-.4 13 13 0 0 1-3 0c-.3 0-.6.1-.8.4l-2.6 3.7-3.4-1.5 1-4.3c0-.3-.1-.6-.4-.8-.9-.7-1.6-1.4-2.3-2.3a.8.8 0 0 0-.8-.3l-4.3.9-1.5-3.4 3.7-2.6c.3-.2.4-.5.4-.8a12.9 12.9 0 0 1 0-3c0-.3-.1-.6-.4-.8l-3.7-2.6 1.5-3.4 4.3 1c.3 0 .6-.1.8-.4.7-.8 1.4-1.6 2.3-2.3.3-.2.4-.5.3-.8l-.9-4.3 3.4-1.5zm4.9 8.6a8 8 0 1 0 0 16 8 8 0 0 0 0-16zm0 1.7a6.3 6.3 0 1 1 0 12.6 6.3 6.3 0 0 1 0-12.6z" stroke="#FFF"/><path d="M40.2 219c-1.5 0-3-.6-4-1.7l-10.3-10.2-13.7-13.7a.7.7 0 0 0-.6-.2c-4.7.9-9.3-1.5-11.4-5.6a1.4 1.4 0 0 1 .2-1.7c.3-.2.6-.4 1-.4h7.8a.7.7 0 0 0 .6-.3l1.3-2.2v-.7l-1.3-2.1a.7.7 0 0 0-.6-.4H1.4c-.5 0-1-.2-1.2-.7-.3-.4-.3-1 0-1.3a10.7 10.7 0 0 1 20 6.8c0 .2 0 .5.2.6l24 24a5.8 5.8 0 0 1 0 8.1l-.2.1c-1 1-2.5 1.6-4 1.6m-28.5-27.2c.6 0 1.1.2 1.5.6L27 206l10.3 10.2c.8.8 1.9 1.3 3 1.3 1.2 0 2.3-.5 3.1-1.3a4.3 4.3 0 0 0 0-6.1l-24-24c-.5-.4-.7-1.2-.5-1.9l.1-1.6a9.3 9.3 0 0 0-17.5-4.3h7.8c.8 0 1.5.4 1.9 1l1.2 2.2c.4.7.4 1.5 0 2.2l-1.2 2c-.1.3-.2.4-.4.5-.4.4-.9.7-1.5.7H1.4a9.4 9.4 0 0 0 10.3 4.8" fill="#FFF"/><path d="M40.2 219c-1.5 0-3-.6-4-1.7l-10.3-10.2-13.7-13.7a.7.7 0 0 0-.6-.2c-4.7.9-9.3-1.5-11.4-5.6a1.4 1.4 0 0 1 .2-1.7c.3-.2.6-.4 1-.4h7.8a.7.7 0 0 0 .6-.3l1.3-2.2v-.7l-1.3-2.1a.7.7 0 0 0-.6-.4H1.4c-.5 0-1-.2-1.2-.7-.3-.4-.3-1 0-1.3a10.7 10.7 0 0 1 20 6.8c0 .2 0 .5.2.6l24 24a5.8 5.8 0 0 1 0 8.1l-.2.1c-1 1-2.5 1.6-4 1.6zm-28.5-27.2c.6 0 1.1.2 1.5.6L27 206l10.3 10.2c.8.8 1.9 1.3 3 1.3 1.2 0 2.3-.5 3.1-1.3a4.3 4.3 0 0 0 0-6.1l-24-24c-.5-.4-.7-1.2-.5-1.9l.1-1.6a9.3 9.3 0 0 0-17.5-4.3h7.8c.8 0 1.5.4 1.9 1l1.2 2.2c.4.7.4 1.5 0 2.2l-1.2 2c-.1.3-.2.4-.4.5-.4.4-.9.7-1.5.7H1.4a9.4 9.4 0 0 0 10.3 4.8z" stroke="#FFF"/><path d="M84.1 147H15a3.9 3.9 0 0 1-3.9-3.8V32.8c0-2 1.7-3.8 3.9-3.8H84c2.2 0 3.9 1.7 3.9 3.8v110.4c0 2-1.7 3.8-3.9 3.8z" stroke="#4E4FFB" stroke-width="3"/><path d="M22 36.5a2.5 2.5 0 1 1-5 0 2.5 2.5 0 0 1 5 0M27 36.5a2.5 2.5 0 1 1-5 0 2.5 2.5 0 0 1 5 0M34 36.5a2.5 2.5 0 1 1-5 0 2.5 2.5 0 0 1 5 0" fill="#4E4FFB"/><path d="M11 44h77" stroke="#4E4FFB" stroke-width="3"/><mask id="f" fill="#fff"><use xlink:href="#e"/></mask><path fill="#6BDE23" mask="url(#f)" d="M34 137h26V61H34z"/><path d="M62 158H34v-25.6c0-1.3 1-2.4 2.4-2.4h23.2c1.3 0 2.4 1 2.4 2.4V158z" fill="#FF7565" mask="url(#f)"/><path d="M51 158H40l1.2 7a26 26 0 0 1 0 8.3l-.6 4.7c-.4 2.4.4 4.7 2 6.3l2.9 2.7 2.6-2.5a7.2 7.2 0 0 0 2-6.7l-.6-3c-.8-3.7-.7-7.6.2-11.4L51 158z" fill="#3136C8" mask="url(#f)"/><path d="M59.6 159H35.4c-2.2 0-3.8-2-3.3-4l1.5-6h27.8l1.5 6c.5 2-1.1 4-3.3 4" fill="#3136C8" mask="url(#f)"/><path d="M51 181.5a2.5 2.5 0 1 1-5 0 2.5 2.5 0 0 1 5 0" fill="#FEE734" mask="url(#f)"/><path d="M51 57v29M44 95v45" stroke="#FFF" stroke-width="3" stroke-linecap="round" mask="url(#f)"/><path fill="#6BDE23" mask="url(#f)" d="M303 144h19v-19h-19z"/><path fill="#FDB094" mask="url(#f)" d="M318 111h23v-8h-23z"/><path fill="#FDB094" mask="url(#f)" d="M332 120h8v-15h-8z"/><path fill="#4E4FFB" mask="url(#f)" d="M330 149h23v-7h-23zM337 141h8v-7h-8z"/><path fill="#FF7565" mask="url(#f)" d="M322 173h17v-7h-17z"/><path fill="#FF7565" mask="url(#f)" d="M314 167h17v-7h-17z"/><path d="M169.9 149h12.9c.5.1 1 .3 1.3.7.4.4.6 1 .6 1.5l-.3 2.5c0 2.6 1 4.9 2.9 6.8 1.9 1.8 4.2 2.8 6.8 2.8 2.6 0 4.9-1 6.8-2.8a9.2 9.2 0 0 0 2.4-9.3h.2c0-1 .5-1.8 1.5-2.1v-.1h13.4c1 0 2 .4 2.7 1 .8.8 1.2 1.7 1.2 2.8V165a5.3 5.3 0 0 0 8.6 3.8v.1c1.2-.7 2.6-1 4-1a8 8 0 0 1 8 8c.1 2.2-.7 4.1-2.3 5.7a8 8 0 0 1-5.7 2.4c-1.4 0-2.8-.4-4-1.1-1-.6-2-1-3.2-1-1.4 0-2.6.5-3.6 1.4-1 1-1.6 2.1-1.7 3.5v14.2c0 1-.5 2-1.2 2.7-.8.8-1.7 1.2-2.8 1.2H205c-.6 0-1.1-.3-1.6-.7-.4-.4-.6-1-.6-1.6l.1-.6a9.5 9.5 0 0 0-8.8-13.3 9.5 9.5 0 0 0-8.9 13.2l.1.8a2.1 2.1 0 0 1-2.2 2.2H170c-1 0-2-.4-2.7-1.2a3.6 3.6 0 0 1-1.2-2.7v-13.2c0-.6.2-1.2.6-1.6.5-.4 1-.6 1.6-.6h.7l.2.2v-.1a9.3 9.3 0 0 0 9.5-2.4c1.9-1.9 2.8-4.1 2.8-6.7 0-2.7-1-5-2.8-6.8a9.3 9.3 0 0 0-9.5-2.4 2.2 2.2 0 0 1-2.5-.4c-.4-.5-.6-1-.6-1.7V153a3.8 3.8 0 0 1 3.9-3.9" fill="#FEE734" mask="url(#f)"/><path d="M175 13a3.5 3.5 0 1 1-5-5 3.5 3.5 0 0 1 5 5z" stroke="#FFF" stroke-width="3" mask="url(#f)"/><path d="M151.3 71.8h-2a12.6 12.6 0 0 0-25.3.7 12.7 12.7 0 0 0 20 10.1c.6-.4.8-1.3.4-1.8s-1.4-.7-1.9-.3a10 10 0 0 1-15.8-8 10 10 0 0 1 20-.7h-2c-.7 0-1 .4-.5 1l3 3.1c.5.5 1.3.5 1.7 0l3-3.1c.3-.6 0-1-.6-1" fill="#4E4FFB" mask="url(#f)"/></g></svg>