<svg id="Layer_1" xmlns="http://www.w3.org/2000/svg" viewBox="0 0 33 15.3" width="2500" height="1159"><defs xmlns="http://www.w3.org/1999/xhtml"/><path d="M19 7.5C19 2.9 22.3.1 26.6.1 30.4.1 33 2 33 4.7c0 2.6-2.2 4.2-4.6 4.2-1.4 0-2.3-.2-3-.8-.2-.1-.3-.1-.3.2 0 1 .4 1.7 1 2.4.5.5 1.5.9 2.4.9 1 0 1.8-.2 2.6-.6s1.3-.2 1.7.4c.5.7-.1 1.6-.7 2.2-1 1-2.9 1.8-5.3 1.8-4.9-.3-7.7-3.5-7.8-7.9zm-9.9 3.1c.4 0 .8.2 1 .8l1.4 2.2c.5.8 1 1.4 1.9 1.4s1.5-.4 2-1.5a27 27 0 0 0 1.8-5.3c.7-2.6 1-4.1 1-5.3s-.4-2-1.8-2.3C14.5.1 11.8 0 9.1 0S3.7.1 1.8.5C.4.8 0 1.5 0 2.8s.3 2.8.9 5.3c.6 2.3 1.2 3.9 1.8 5.3.5 1.1 1 1.5 1.9 1.5s1.4-.6 1.9-1.4l1.4-2.2c.4-.4.7-.7 1.2-.7z" fill="#4e5e67"/></svg>