<svg width="248" height="175" xmlns="http://www.w3.org/2000/svg" xmlns:xlink="http://www.w3.org/1999/xlink"><defs><path id="a" d="M0 153h213.2V.5H0z"/></defs><g fill="none" fill-rule="evenodd"><path d="M65.7 56.7h19.8V36.8H65.7v19.9zm-3 3h25.8V33.8H62.7v25.9z" fill="#FFF"/><path d="M42.8 56.7h19.9V36.8H42.8v19.9zm-3 3h25.9V33.8H39.8v25.9z" fill="#FFF"/><path d="M17 82.5h25.8V56.7H17v25.8zm3-3h19.8V59.7H20v19.8zM65.7 79.5h19.8V59.7H65.7v19.8zm-3 3h25.8V56.7H62.7v25.8zM62.7 36.8h25.8V11H62.7v25.8zm3-3h19.8V14H65.7v19.8z" fill="#FFF"/><path d="M85.5 36.8h25.8V11H85.5v25.8zm3-3h19.8V14H88.5v19.8zM42.8 102.3h19.9V82.5H42.8v19.8zm-3 3h25.9V79.5H39.8v25.8z" fill="#FFF"/><g transform="translate(17 10.5)"><path d="M51 26.2c-1.3 0-2.3 1-2.3 2.4V92c0 1.3 1 2.4 2.4 2.4h104c1.3 0 2.3-1 2.3-2.4V28.6c0-1.4-1-2.4-2.4-2.4H51zm104 71.3H51c-3 0-5.3-2.4-5.3-5.4V28.6c0-3 2.4-5.4 5.4-5.4h104c3 0 5.3 2.4 5.3 5.4V92c0 3-2.4 5.4-5.4 5.4z" fill="#4E4FFB"/><path d="M55.9 31a2 2 0 1 1-4 0 2 2 0 0 1 4 0M62.9 31a2 2 0 1 1-4 0 2 2 0 0 1 4 0M69.9 31a2 2 0 1 1-4 0 2 2 0 0 1 4 0" fill="#4E4FFB"/><mask id="b" fill="#fff"><use xlink:href="#a"/></mask><path fill="#4E4FFB" mask="url(#b)" d="M47.2 39.4h111.7v-3H47.2z"/><path fill="#6BDE23" mask="url(#b)" d="M76.6 82.8H110V46.3H76.6z"/><path d="M111 115H75.7V83a3 3 0 0 1 3-3.2H108a3 3 0 0 1 3 3.1v32.2z" fill="#FF7565" mask="url(#b)"/><path d="M100.7 116.4H86l1.6 8.8c.6 3.5.7 7 0 10.5l-.9 6c-.4 3 .6 6 2.8 7.9l3.8 3.4 3.5-3.2a8.8 8.8 0 0 0 2.7-8.4l-.8-3.7c-1-4.8-1-9.7.2-14.5l1.8-6.8z" fill="#3136C8" mask="url(#b)"/><path d="M108.7 119.3H78a4.3 4.3 0 0 1-4.2-5.3l1.9-7.9H111l1.9 8a4.3 4.3 0 0 1-4.2 5.2" fill="#3136C8" mask="url(#b)"/><path d="M95.7 143.8a2.4 2.4 0 1 1-4.8 0 2.4 2.4 0 0 1 4.8 0" fill="#FEE734" mask="url(#b)"/><path d="M99.3 58.9c-.8 0-1.5-.7-1.5-1.5V44.8a1.5 1.5 0 1 1 3 0v12.6c0 .8-.6 1.5-1.5 1.5M89 95.9c-.7 0-1.4-.7-1.4-1.5V65.3a1.5 1.5 0 1 1 3 0v29c0 1-.7 1.6-1.5 1.6" fill="#FFF" mask="url(#b)"/><path d="M134.6 121.4l2.3 25.3a4.7 4.7 0 0 0 4.8 4.3h38.2c2.6 0 4.8-2.1 4.8-4.7v-5.5c0-2.6 2-4.7 4.7-4.7h9.7c2.6 0 4.7-2.1 4.7-4.8V126c0-2.6 2.2-4.8 4.8-4.8 1.1 0 2.2-.4 3-1 2-1.6 2-4.6.5-6.5L201.2 100c-.7-1.7-4-15.9-4-15.9l-57.6-3.6c-2.7-.1-5 2-5 4.7v36.1" fill="#3136C8" mask="url(#b)"/><path d="M134.2 142.8l-8.7-31.4c-2.4-8.7-4.1-17.5-5.1-26.4l-.3-2.6A13 13 0 0 1 133.9 68c3.3.2 6-2.3 5.9-5.6v-7.1c-.1-4.8 4.8-8 9.2-6.1l13.3 6c1.9.8 4 .7 5.8-.3l12-6.3c2-1.2 4.6-1 6.6.2l10.7 7a6.6 6.6 0 0 1 2.4 8.4l-3 6.2c-1.4 3-.4 6.4 2.3 8.3a6.6 6.6 0 0 1-1 11.4l-5.6 2.6a39 39 0 0 0-21.8 26.1c-.4 1.7-2 2.9-3.7 2.9h-5.1c-2.1 0-3.8-1.7-3.8-3.8 0-2-1.7-3.8-3.8-3.8h-6.7c-2.1 0-3.8 1.7-3.8 3.8l-.3 15.9c0 5-4.2 9.1-9.3 9.1" fill="#FDB094" mask="url(#b)"/></g></g></svg>