<svg width="248" height="175" xmlns="http://www.w3.org/2000/svg" xmlns:xlink="http://www.w3.org/1999/xlink"><defs><path id="a" d="M1 .7h17.4v17.5H.9z"/><path id="c" d="M0 150h225.4V.7H0z"/></defs><g fill="none" fill-rule="evenodd"><path d="M82.8 113.6h19.9V93.8H82.8v19.8zm-3 3h25.9V90.8H79.8v25.8z" fill="#FFF"/><path d="M82.8 136.4h19.9v-19.8H82.8v19.8zm-3 3h25.9v-25.8H79.8v25.8z" fill="#FFF"/><path d="M102.7 162.3h25.8v-25.9h-25.8v25.9zm3-3h19.8v-19.9h-19.8v19.9zM105.7 113.6h19.8V93.8h-19.8v19.8zm-3 3h25.8V90.8h-25.8v25.8zM60 113.6h19.8V93.8H60v19.8zm-3 3h25.8V90.8H57v25.8zM60 67.2h19.8V47.4H60v19.8zm-3 3h25.8V44.4H57v25.8z" fill="#FFF"/><path d="M128.5 136.4h19.8v-19.8h-19.8v19.8zm-3 3h25.8v-25.8h-25.8v25.8zM36.8 44.8h19.9V24.9H36.8v19.9zm-3 3h25.9V21.9H33.8v25.9z" fill="#FFF"/><path d="M11 70.6h25.8V44.8H11v25.8zm3-3h19.8V47.8H14v19.8z" fill="#FFF"/><path d="M36.8 90.4h19.9V70.6H36.8v19.8zm-3 3h25.9V67.6H33.8v25.8z" fill="#FFF"/><g transform="translate(11 12.3)"><path d="M206.7 122.4a5.3 5.3 0 0 1-5.2 4.8h-16.8c-1.6 0-11.3 0-14.4-.9-4.7-1.3 1.8-8.2-.8-12.2-2.5-4-4.9-5.8-7-5.8l-9.3-1.3c-5.2-1.3-6.8-2.8-8-6.7-.2-.9-.4-1.7-.4-2.6V91l-6.8-3.4a2.6 2.6 0 0 1-1-3.7l.5-.9a48.1 48.1 0 0 0 6.1-18.3l.3-2.2h1.7c-.3-2.7 1.7-5 4.4-5.2l50.7 1.8c3-.2 7.2 8.2 7.2 11.2l-2.3 24.3 1.1 27.8z" fill="#4E4FFB"/><path d="M207 86.6c5.1-41-5.1-49.7-21-53.9A37.6 37.6 0 0 0 144 51.2l-1.8 3.2A7.1 7.1 0 0 0 148 65l12.2.7c2.8.1 5.5-9.6 7-7.2 0 0 3.2 9.3 6 14.4 1 2 3.7 2 5 .2l2-3.3a4.5 4.5 0 0 1 6.8-.9l20 17.8z" fill="#6BDE23"/><path d="M217.8 26.8a17.4 17.4 0 1 1-34.7 2.4 17.4 17.4 0 0 1 34.7-2.4" fill="#6BDE23"/><g transform="translate(207)"><mask id="b" fill="#fff"><use xlink:href="#a"/></mask><path d="M18.3 8.9A8.7 8.7 0 1 1 1 10 8.7 8.7 0 0 1 18.3 9" fill="#6BDE23" mask="url(#b)"/></g><path d="M21.5 24.9c-1.3 0-2.4 1-2.4 2.4v63.5c0 1.3 1 2.4 2.4 2.4h104c1.3 0 2.4-1 2.4-2.4V27.3c0-1.3-1-2.4-2.4-2.4h-104zm104 71.3h-104c-3 0-5.4-2.4-5.4-5.4V27.3c0-3 2.4-5.4 5.4-5.4h104c3 0 5.4 2.4 5.4 5.4v63.5c0 3-2.4 5.4-5.4 5.4z" fill="#4E4FFB"/><path d="M26.3 29.7a2 2 0 1 1-4 0 2 2 0 0 1 4 0M33.3 29.7a2 2 0 1 1-4 0 2 2 0 0 1 4 0M40.3 29.7a2 2 0 1 1-4 0 2 2 0 0 1 4 0" fill="#4E4FFB"/><mask id="d" fill="#fff"><use xlink:href="#c"/></mask><path fill="#4E4FFB" mask="url(#d)" d="M17.6 38.2h111.8v-3H17.6z"/><path d="M87.8 85.4h11c2.9 0 5.2 2.3 5.2 5.1v31c0 2.8-2.3 5.1-5.2 5.1h-33a5.1 5.1 0 0 1-5.1-5.1v-31c0-2.8 2.3-5 5-5H77" fill="#3136C8" mask="url(#d)"/><path d="M98.8 128h-33a6.5 6.5 0 0 1-6.5-6.5v-31c0-3.5 3-6.4 6.5-6.4h11v2.7h-11c-2.1 0-3.8 1.7-3.8 3.7v31c0 2 1.7 3.8 3.8 3.8h33c2.1 0 3.8-1.7 3.8-3.8v-31c0-2-1.7-3.7-3.8-3.7h-11V84h11c3.6 0 6.5 2.9 6.5 6.4v31c0 3.6-2.9 6.5-6.5 6.5" fill="#3136C8" mask="url(#d)"/><path fill="#6BDE23" mask="url(#d)" d="M87.8 76.5V107h-11V76.5"/><path fill="#6BDE23" mask="url(#d)" d="M89.1 108.5H75.5v-32h2.7v29.3h8.2V76.5h2.7z"/><path d="M95.2 65.4a12.8 12.8 0 1 1-25.7 0 12.8 12.8 0 0 1 25.7 0" fill="#FF7565" mask="url(#d)"/><path d="M82.3 54a11.5 11.5 0 1 0 0 23 11.5 11.5 0 0 0 0-23m0 25.6a14.2 14.2 0 1 1 0-28.4 14.2 14.2 0 0 1 0 28.4" fill="#FF7565" mask="url(#d)"/></g></g></svg>