<?xml version="1.0" encoding="UTF-8"?>
<svg width="118px" height="37px" viewBox="0 0 118 37" version="1.1" xmlns="http://www.w3.org/2000/svg" xmlns:xlink="http://www.w3.org/1999/xlink">
    <!-- Generator: Sketch 48.2 (47327) - http://www.bohemiancoding.com/sketch -->
    <title>Group 5</title>
    <desc>Created with Sketch.</desc>
    <defs></defs>
    <g id="LP-largescreen" stroke="none" stroke-width="1" fill="none" fill-rule="evenodd" transform="translate(-46.000000, -39.000000)">
        <g id="Group-5" transform="translate(46.000000, 39.000000)">
            <rect id="Rectangle-7" fill="#000000" x="0" y="0" width="118" height="37"></rect>
            <path d="M108.93808,27.1948424 L109,29.3381089 C108.256966,29.747851 107.359133,30 106.49226,30 C104.603715,30 103.613003,28.9283668 103.396285,27.1948424 C102.622291,28.6131805 101.198142,30 98.9380805,30 C96.9256966,30 94.6656347,28.9283668 94.6656347,25.9340974 C94.6656347,22.4670487 97.9164087,21.6475645 101.167183,21.6475645 C101.910217,21.6475645 102.71517,21.6475645 103.396285,21.773639 L103.396285,21.3008596 C103.396285,19.8194842 103.396285,18.1174785 101.167183,18.1174785 C100.30031,18.1174785 99.6501548,18.1489971 99,18.5272206 L98.5356037,20.1346705 L95.377709,19.756447 L95.9040248,16.47851 C98.3188854,15.5014327 99.619195,15.1862464 101.910217,15.1862464 C104.851393,15.1862464 107.452012,16.7936963 107.452012,20.0401146 L107.452012,26.1862464 C107.452012,27.0372493 107.76161,27.2893983 108.411765,27.2893983 C108.535604,27.2893983 108.752322,27.2893983 108.93808,27.1948424 Z M100.393189,27.1318052 C101.817337,27.1318052 103.303406,26.0286533 103.396285,23.6962751 C102.74613,23.6017192 102.065015,23.5071633 101.414861,23.5071633 C99.9907121,23.5071633 98.7213622,23.8853868 98.7213622,25.4928367 C98.7213622,26.3753582 99.2167183,27.1318052 100.393189,27.1318052 Z M91.0743034,8 L95.006192,8 L88.9690402,29.6848138 L85.0681115,29.6848138 L91.0743034,8 Z M82.993808,8 L86.9256966,8 L80.8885449,29.6848138 L76.9566563,29.6848138 L82.993808,8 Z M70.1764706,20.5759312 L70.1764706,15.469914 L74.3250774,15.469914 L74.3250774,20.5759312 L70.1764706,20.5759312 Z M70.1764706,29.6848138 L70.1764706,24.5787966 L74.3250774,24.5787966 L74.3250774,29.6848138 L70.1764706,29.6848138 Z M63.4272446,26.6275072 L64.0773994,24.4212034 L67.2352941,24.7048711 L66.3993808,29.6848138 L54.1702786,29.6848138 L53.7678019,27.5415473 L61.4458204,18.5272206 L57.1114551,18.5272206 L56.4922601,20.765043 L53.5510836,20.4498567 L54.0464396,15.469914 L66.3374613,15.469914 L66.6470588,17.5816619 L58.9071207,26.6275072 L63.4272446,26.6275072 Z M44.0773994,15.1862464 C49.0928793,15.1862464 51.5696594,18.6217765 51.5696594,22.6246418 C51.5696594,27.1318052 48.3188854,30 43.8606811,30 C39.5263158,30 36.5851393,27.3524355 36.5851393,22.782235 C36.5851393,18.6217765 39.0619195,15.1862464 44.0773994,15.1862464 Z M43.9535604,26.8796562 C46.0588235,26.8796562 47.4210526,25.1776504 47.4210526,22.4670487 C47.4210526,19.6303725 45.9040248,18.3065903 44.0154799,18.3065903 C41.9721362,18.3065903 40.6718266,19.8825215 40.6718266,22.530086 C40.6718266,24.9570201 41.8173375,26.8796562 43.9535604,26.8796562 Z M32.993808,20.1346705 L32.993808,26.6275072 L34.8823529,26.6275072 L34.8823529,29.6848138 L29.0309598,29.6848138 L29.0309598,21.7106017 C29.0309598,19.252149 28.2260062,18.2750716 26.5851393,18.2750716 C24.6965944,18.2750716 23.9226006,19.6618911 23.9226006,21.6475645 L23.9226006,26.6275072 L25.7801858,26.6275072 L25.7801858,29.6848138 L19.9287926,29.6848138 L19.9287926,21.7106017 C19.9287926,19.252149 19.0928793,18.2750716 17.5448916,18.2750716 C15.6563467,18.2750716 14.8513932,19.6618911 14.8513932,21.6475645 L14.8513932,26.6275072 L17.4829721,26.6275072 L17.4829721,29.6848138 L9,29.6848138 L9,26.6275072 L10.8575851,26.6275072 L10.8575851,18.5587393 L9,18.5587393 L9,15.469914 L14.8513932,15.469914 L14.8513932,17.6131805 C15.6873065,16.1318052 17.1424149,15.1862464 19.0928793,15.1862464 C21.1362229,15.1862464 22.993808,16.1633238 23.6439628,18.2750716 C24.3869969,16.3839542 25.996904,15.1862464 28.2260062,15.1862464 C30.6718266,15.1862464 32.993808,16.730659 32.993808,20.1346705 Z" id="mozilla" fill="#FFFFFF"></path>
        </g>
    </g>
</svg>